<mxfile host="app.diagrams.net" modified="2022-11-12T14:23:17.403Z" agent="5.0 (Windows NT 10.0; Win64; x64) AppleWebKit/537.36 (KHTML, like Gecko) Chrome/107.0.0.0 Safari/537.36 Edg/107.0.1418.42" etag="fNm8WU0HZ0hcYZFa9B0Z" version="20.5.1" type="github">
  <diagram id="hwCg-DZVeU5mrU0i1WNE" name="第 1 页">
    <mxGraphModel dx="1038" dy="600" grid="0" gridSize="10" guides="1" tooltips="1" connect="1" arrows="1" fold="1" page="1" pageScale="1" pageWidth="827" pageHeight="1169" math="0" shadow="0">
      <root>
        <mxCell id="0" />
        <mxCell id="1" parent="0" />
        <mxCell id="QxZiSpxpZcUwjn_7GbFV-63" value="" style="rounded=0;whiteSpace=wrap;html=1;" vertex="1" parent="1">
          <mxGeometry x="32" y="15" width="710" height="526" as="geometry" />
        </mxCell>
        <mxCell id="QxZiSpxpZcUwjn_7GbFV-1" value="顾客" style="shape=umlActor;verticalLabelPosition=bottom;verticalAlign=top;html=1;outlineConnect=0;" vertex="1" parent="1">
          <mxGeometry x="65" y="28" width="18" height="48" as="geometry" />
        </mxCell>
        <mxCell id="QxZiSpxpZcUwjn_7GbFV-5" value="菜品信息" style="rounded=0;whiteSpace=wrap;html=1;fillColor=#fff2cc;strokeColor=#d6b656;" vertex="1" parent="1">
          <mxGeometry x="157" y="34.25" width="61" height="35.5" as="geometry" />
        </mxCell>
        <mxCell id="QxZiSpxpZcUwjn_7GbFV-6" value="订单信息" style="rounded=0;whiteSpace=wrap;html=1;fillColor=#fff2cc;strokeColor=#d6b656;" vertex="1" parent="1">
          <mxGeometry x="234" y="34.25" width="61" height="35.5" as="geometry" />
        </mxCell>
        <mxCell id="QxZiSpxpZcUwjn_7GbFV-8" value="路径信息" style="rounded=0;whiteSpace=wrap;html=1;fillColor=#fff2cc;strokeColor=#d6b656;" vertex="1" parent="1">
          <mxGeometry x="378" y="32" width="61" height="35.5" as="geometry" />
        </mxCell>
        <mxCell id="QxZiSpxpZcUwjn_7GbFV-16" value="账单信息" style="rounded=0;whiteSpace=wrap;html=1;fillColor=#fff2cc;strokeColor=#d6b656;" vertex="1" parent="1">
          <mxGeometry x="474" y="32" width="61" height="35.5" as="geometry" />
        </mxCell>
        <mxCell id="QxZiSpxpZcUwjn_7GbFV-17" value="反馈信息" style="rounded=0;whiteSpace=wrap;html=1;fillColor=#fff2cc;strokeColor=#d6b656;" vertex="1" parent="1">
          <mxGeometry x="563" y="32" width="61" height="35.5" as="geometry" />
        </mxCell>
        <mxCell id="QxZiSpxpZcUwjn_7GbFV-18" value="" style="endArrow=none;dashed=1;html=1;dashPattern=1 3;strokeWidth=2;rounded=0;entryX=0.5;entryY=0;entryDx=0;entryDy=0;" edge="1" parent="1" source="QxZiSpxpZcUwjn_7GbFV-1" target="QxZiSpxpZcUwjn_7GbFV-21">
          <mxGeometry width="50" height="50" relative="1" as="geometry">
            <mxPoint x="76" y="148" as="sourcePoint" />
            <mxPoint x="56.58333333333326" y="204" as="targetPoint" />
          </mxGeometry>
        </mxCell>
        <mxCell id="QxZiSpxpZcUwjn_7GbFV-21" value="" style="rounded=0;whiteSpace=wrap;html=1;fillColor=#fff2cc;strokeColor=#d6b656;" vertex="1" parent="1">
          <mxGeometry x="60" y="190" width="28" height="227" as="geometry" />
        </mxCell>
        <mxCell id="QxZiSpxpZcUwjn_7GbFV-22" value="" style="endArrow=none;dashed=1;html=1;dashPattern=1 3;strokeWidth=2;rounded=0;exitX=0.5;exitY=1;exitDx=0;exitDy=0;" edge="1" parent="1" source="QxZiSpxpZcUwjn_7GbFV-21">
          <mxGeometry width="50" height="50" relative="1" as="geometry">
            <mxPoint x="69" y="432" as="sourcePoint" />
            <mxPoint x="74" y="529" as="targetPoint" />
          </mxGeometry>
        </mxCell>
        <mxCell id="QxZiSpxpZcUwjn_7GbFV-23" value="" style="endArrow=none;dashed=1;html=1;dashPattern=1 3;strokeWidth=2;rounded=0;entryX=0.5;entryY=0;entryDx=0;entryDy=0;exitX=0.5;exitY=1;exitDx=0;exitDy=0;" edge="1" parent="1" target="QxZiSpxpZcUwjn_7GbFV-24" source="QxZiSpxpZcUwjn_7GbFV-5">
          <mxGeometry width="50" height="50" relative="1" as="geometry">
            <mxPoint x="187.5" y="88" as="sourcePoint" />
            <mxPoint x="170.08333333333326" y="216" as="targetPoint" />
          </mxGeometry>
        </mxCell>
        <mxCell id="QxZiSpxpZcUwjn_7GbFV-24" value="" style="rounded=0;whiteSpace=wrap;html=1;fillColor=#fff2cc;strokeColor=#d6b656;" vertex="1" parent="1">
          <mxGeometry x="174" y="202" width="27.5" height="33" as="geometry" />
        </mxCell>
        <mxCell id="QxZiSpxpZcUwjn_7GbFV-25" value="" style="endArrow=none;dashed=1;html=1;dashPattern=1 3;strokeWidth=2;rounded=0;exitX=0.5;exitY=1;exitDx=0;exitDy=0;" edge="1" parent="1" source="QxZiSpxpZcUwjn_7GbFV-24">
          <mxGeometry width="50" height="50" relative="1" as="geometry">
            <mxPoint x="171.5" y="444" as="sourcePoint" />
            <mxPoint x="188" y="519" as="targetPoint" />
          </mxGeometry>
        </mxCell>
        <mxCell id="QxZiSpxpZcUwjn_7GbFV-26" value="" style="endArrow=none;dashed=1;html=1;dashPattern=1 3;strokeWidth=2;rounded=0;entryX=0.5;entryY=0;entryDx=0;entryDy=0;" edge="1" parent="1" target="QxZiSpxpZcUwjn_7GbFV-27">
          <mxGeometry width="50" height="50" relative="1" as="geometry">
            <mxPoint x="264.5" y="69.75" as="sourcePoint" />
            <mxPoint x="247.08333333333326" y="197.75" as="targetPoint" />
          </mxGeometry>
        </mxCell>
        <mxCell id="QxZiSpxpZcUwjn_7GbFV-27" value="" style="rounded=0;whiteSpace=wrap;html=1;fillColor=#fff2cc;strokeColor=#d6b656;" vertex="1" parent="1">
          <mxGeometry x="250.5" y="183.75" width="28" height="184" as="geometry" />
        </mxCell>
        <mxCell id="QxZiSpxpZcUwjn_7GbFV-28" value="" style="endArrow=none;dashed=1;html=1;dashPattern=1 3;strokeWidth=2;rounded=0;exitX=0.5;exitY=1;exitDx=0;exitDy=0;" edge="1" parent="1" source="QxZiSpxpZcUwjn_7GbFV-27">
          <mxGeometry width="50" height="50" relative="1" as="geometry">
            <mxPoint x="259.5" y="425.75" as="sourcePoint" />
            <mxPoint x="264.5" y="522.75" as="targetPoint" />
          </mxGeometry>
        </mxCell>
        <mxCell id="QxZiSpxpZcUwjn_7GbFV-29" value="" style="endArrow=none;dashed=1;html=1;dashPattern=1 3;strokeWidth=2;rounded=0;entryX=0.5;entryY=0;entryDx=0;entryDy=0;" edge="1" parent="1" target="QxZiSpxpZcUwjn_7GbFV-30">
          <mxGeometry width="50" height="50" relative="1" as="geometry">
            <mxPoint x="408.5" y="73.75" as="sourcePoint" />
            <mxPoint x="391.08333333333326" y="201.75" as="targetPoint" />
          </mxGeometry>
        </mxCell>
        <mxCell id="QxZiSpxpZcUwjn_7GbFV-30" value="" style="rounded=0;whiteSpace=wrap;html=1;fillColor=#fff2cc;strokeColor=#d6b656;" vertex="1" parent="1">
          <mxGeometry x="394.5" y="222" width="28" height="40" as="geometry" />
        </mxCell>
        <mxCell id="QxZiSpxpZcUwjn_7GbFV-31" value="" style="endArrow=none;dashed=1;html=1;dashPattern=1 3;strokeWidth=2;rounded=0;exitX=0.5;exitY=1;exitDx=0;exitDy=0;" edge="1" parent="1" source="QxZiSpxpZcUwjn_7GbFV-30">
          <mxGeometry width="50" height="50" relative="1" as="geometry">
            <mxPoint x="403.5" y="429.75" as="sourcePoint" />
            <mxPoint x="408.5" y="526.75" as="targetPoint" />
          </mxGeometry>
        </mxCell>
        <mxCell id="QxZiSpxpZcUwjn_7GbFV-32" value="" style="endArrow=none;dashed=1;html=1;dashPattern=1 3;strokeWidth=2;rounded=0;entryX=0.5;entryY=0;entryDx=0;entryDy=0;" edge="1" parent="1" target="QxZiSpxpZcUwjn_7GbFV-33">
          <mxGeometry width="50" height="50" relative="1" as="geometry">
            <mxPoint x="504.5" y="73.75" as="sourcePoint" />
            <mxPoint x="487.08333333333326" y="201.75" as="targetPoint" />
          </mxGeometry>
        </mxCell>
        <mxCell id="QxZiSpxpZcUwjn_7GbFV-33" value="" style="rounded=0;whiteSpace=wrap;html=1;fillColor=#fff2cc;strokeColor=#d6b656;" vertex="1" parent="1">
          <mxGeometry x="490.5" y="187.75" width="28" height="184" as="geometry" />
        </mxCell>
        <mxCell id="QxZiSpxpZcUwjn_7GbFV-34" value="" style="endArrow=none;dashed=1;html=1;dashPattern=1 3;strokeWidth=2;rounded=0;exitX=0.5;exitY=1;exitDx=0;exitDy=0;" edge="1" parent="1" source="QxZiSpxpZcUwjn_7GbFV-33">
          <mxGeometry width="50" height="50" relative="1" as="geometry">
            <mxPoint x="499.5" y="429.75" as="sourcePoint" />
            <mxPoint x="504.5" y="526.75" as="targetPoint" />
          </mxGeometry>
        </mxCell>
        <mxCell id="QxZiSpxpZcUwjn_7GbFV-35" value="" style="endArrow=none;dashed=1;html=1;dashPattern=1 3;strokeWidth=2;rounded=0;entryX=0.5;entryY=0;entryDx=0;entryDy=0;startArrow=none;" edge="1" parent="1" target="QxZiSpxpZcUwjn_7GbFV-36" source="QxZiSpxpZcUwjn_7GbFV-61">
          <mxGeometry width="50" height="50" relative="1" as="geometry">
            <mxPoint x="593.5" y="69.75" as="sourcePoint" />
            <mxPoint x="576.0833333333333" y="197.75" as="targetPoint" />
          </mxGeometry>
        </mxCell>
        <mxCell id="QxZiSpxpZcUwjn_7GbFV-36" value="" style="rounded=0;whiteSpace=wrap;html=1;fillColor=#fff2cc;strokeColor=#d6b656;" vertex="1" parent="1">
          <mxGeometry x="579.5" y="374" width="28" height="22.75" as="geometry" />
        </mxCell>
        <mxCell id="QxZiSpxpZcUwjn_7GbFV-37" value="" style="endArrow=none;dashed=1;html=1;dashPattern=1 3;strokeWidth=2;rounded=0;exitX=0.5;exitY=1;exitDx=0;exitDy=0;" edge="1" parent="1" source="QxZiSpxpZcUwjn_7GbFV-36">
          <mxGeometry width="50" height="50" relative="1" as="geometry">
            <mxPoint x="588.5" y="425.75" as="sourcePoint" />
            <mxPoint x="593.5" y="522.75" as="targetPoint" />
          </mxGeometry>
        </mxCell>
        <mxCell id="QxZiSpxpZcUwjn_7GbFV-38" value="" style="endArrow=classic;html=1;rounded=0;" edge="1" parent="1">
          <mxGeometry width="50" height="50" relative="1" as="geometry">
            <mxPoint x="172" y="223" as="sourcePoint" />
            <mxPoint x="94" y="223" as="targetPoint" />
          </mxGeometry>
        </mxCell>
        <mxCell id="QxZiSpxpZcUwjn_7GbFV-39" value="showAllMeal()" style="text;html=1;strokeColor=none;fillColor=none;align=center;verticalAlign=middle;whiteSpace=wrap;rounded=0;" vertex="1" parent="1">
          <mxGeometry x="103" y="195" width="60" height="26" as="geometry" />
        </mxCell>
        <mxCell id="QxZiSpxpZcUwjn_7GbFV-41" value="" style="endArrow=classic;html=1;rounded=0;" edge="1" parent="1">
          <mxGeometry width="50" height="50" relative="1" as="geometry">
            <mxPoint x="99" y="271" as="sourcePoint" />
            <mxPoint x="245" y="269" as="targetPoint" />
          </mxGeometry>
        </mxCell>
        <mxCell id="QxZiSpxpZcUwjn_7GbFV-42" value="addMealInfo(mealId)" style="text;html=1;strokeColor=none;fillColor=none;align=center;verticalAlign=middle;whiteSpace=wrap;rounded=0;" vertex="1" parent="1">
          <mxGeometry x="147" y="248" width="60" height="26" as="geometry" />
        </mxCell>
        <mxCell id="QxZiSpxpZcUwjn_7GbFV-44" value="" style="endArrow=classic;html=1;rounded=0;" edge="1" parent="1">
          <mxGeometry width="50" height="50" relative="1" as="geometry">
            <mxPoint x="282" y="240" as="sourcePoint" />
            <mxPoint x="390" y="240" as="targetPoint" />
          </mxGeometry>
        </mxCell>
        <mxCell id="QxZiSpxpZcUwjn_7GbFV-45" value="generatePath()" style="text;html=1;strokeColor=none;fillColor=none;align=center;verticalAlign=middle;whiteSpace=wrap;rounded=0;" vertex="1" parent="1">
          <mxGeometry x="307" y="214" width="60" height="26" as="geometry" />
        </mxCell>
        <mxCell id="QxZiSpxpZcUwjn_7GbFV-47" value="" style="endArrow=classic;html=1;rounded=0;" edge="1" parent="1">
          <mxGeometry width="50" height="50" relative="1" as="geometry">
            <mxPoint x="286.5" y="327" as="sourcePoint" />
            <mxPoint x="479" y="327" as="targetPoint" />
          </mxGeometry>
        </mxCell>
        <mxCell id="QxZiSpxpZcUwjn_7GbFV-48" value="generateBill(billId)" style="text;html=1;strokeColor=none;fillColor=none;align=center;verticalAlign=middle;whiteSpace=wrap;rounded=0;" vertex="1" parent="1">
          <mxGeometry x="349" y="301" width="60" height="26" as="geometry" />
        </mxCell>
        <mxCell id="QxZiSpxpZcUwjn_7GbFV-49" value="" style="endArrow=classic;html=1;rounded=0;" edge="1" parent="1">
          <mxGeometry width="50" height="50" relative="1" as="geometry">
            <mxPoint x="92" y="397" as="sourcePoint" />
            <mxPoint x="573" y="396.75" as="targetPoint" />
          </mxGeometry>
        </mxCell>
        <mxCell id="QxZiSpxpZcUwjn_7GbFV-50" value="addComment()" style="text;html=1;strokeColor=none;fillColor=none;align=center;verticalAlign=middle;whiteSpace=wrap;rounded=0;" vertex="1" parent="1">
          <mxGeometry x="313" y="367.75" width="60" height="26" as="geometry" />
        </mxCell>
        <mxCell id="QxZiSpxpZcUwjn_7GbFV-53" value="数据库" style="rounded=0;whiteSpace=wrap;html=1;fillColor=#fff2cc;strokeColor=#d6b656;" vertex="1" parent="1">
          <mxGeometry x="655" y="32" width="61" height="35.5" as="geometry" />
        </mxCell>
        <mxCell id="QxZiSpxpZcUwjn_7GbFV-54" value="" style="endArrow=none;dashed=1;html=1;dashPattern=1 3;strokeWidth=2;rounded=0;entryX=0.5;entryY=0;entryDx=0;entryDy=0;" edge="1" parent="1" target="QxZiSpxpZcUwjn_7GbFV-55">
          <mxGeometry width="50" height="50" relative="1" as="geometry">
            <mxPoint x="685.5" y="69.75" as="sourcePoint" />
            <mxPoint x="668.0833333333333" y="197.75" as="targetPoint" />
          </mxGeometry>
        </mxCell>
        <mxCell id="QxZiSpxpZcUwjn_7GbFV-55" value="" style="rounded=0;whiteSpace=wrap;html=1;fillColor=#fff2cc;strokeColor=#d6b656;" vertex="1" parent="1">
          <mxGeometry x="671.5" y="327" width="28" height="22.75" as="geometry" />
        </mxCell>
        <mxCell id="QxZiSpxpZcUwjn_7GbFV-56" value="" style="endArrow=none;dashed=1;html=1;dashPattern=1 3;strokeWidth=2;rounded=0;exitX=0.5;exitY=1;exitDx=0;exitDy=0;" edge="1" parent="1" source="QxZiSpxpZcUwjn_7GbFV-55">
          <mxGeometry width="50" height="50" relative="1" as="geometry">
            <mxPoint x="680.5" y="425.75" as="sourcePoint" />
            <mxPoint x="685.5" y="522.75" as="targetPoint" />
          </mxGeometry>
        </mxCell>
        <mxCell id="QxZiSpxpZcUwjn_7GbFV-57" value="" style="endArrow=classic;html=1;rounded=0;" edge="1" parent="1">
          <mxGeometry width="50" height="50" relative="1" as="geometry">
            <mxPoint x="533" y="341" as="sourcePoint" />
            <mxPoint x="662" y="341" as="targetPoint" />
          </mxGeometry>
        </mxCell>
        <mxCell id="QxZiSpxpZcUwjn_7GbFV-61" value="updateDB()" style="text;html=1;strokeColor=none;fillColor=none;align=center;verticalAlign=middle;whiteSpace=wrap;rounded=0;" vertex="1" parent="1">
          <mxGeometry x="564" y="313" width="60" height="26" as="geometry" />
        </mxCell>
        <mxCell id="QxZiSpxpZcUwjn_7GbFV-62" value="" style="endArrow=none;dashed=1;html=1;dashPattern=1 3;strokeWidth=2;rounded=0;entryX=0.5;entryY=0;entryDx=0;entryDy=0;" edge="1" parent="1" target="QxZiSpxpZcUwjn_7GbFV-61">
          <mxGeometry width="50" height="50" relative="1" as="geometry">
            <mxPoint x="593.5" y="69.75" as="sourcePoint" />
            <mxPoint x="593.5" y="374" as="targetPoint" />
          </mxGeometry>
        </mxCell>
      </root>
    </mxGraphModel>
  </diagram>
</mxfile>
